<svg xmlns="http://www.w3.org/2000/svg" width="138" height="26" fill="none" style=""><rect id="backgroundrect" width="100%" height="100%" x="0" y="0" fill="none" stroke="none"/>

<defs>
<clipPath id="clip0">
<rect width="138" height="26" fill="white" id="svg_1"/>
</clipPath>
</defs>
<g class="currentLayer" style=""><title>Layer 1</title><g clip-path="url(#clip0)" id="svg_2" class="" fill="#ffffff" fill-opacity="1">
<path d="M37.30776133069992,11.7246 L35.06776133069992,4.17861 H35.01176133069992 C35.02116133069992,4.36528 35.03516133069992,4.63594 35.05376133069992,4.99061 C35.08176133069992,5.33594 35.10516133069992,5.709280000000001 35.12376133069992,6.11061 C35.14246133069992,6.51194 35.15176133069992,6.88061 35.15176133069992,7.21661 V11.7246 H33.02376133069992 V1.7286100000000004 H36.24376133069992 L38.46976133069992,9.12061 H38.52576133069992 L40.82176133069992,1.7286100000000004 H44.02776133069992 V11.7246 H41.81576133069992 V7.16061 C41.81576133069992,6.84328 41.82046133069992,6.49328 41.829761330699924,6.11061 C41.84846133069992,5.71861 41.86246133069992,5.34994 41.87176133069992,5.00461 C41.89046133069992,4.64994 41.904461330699924,4.3792800000000005 41.91376133069992,4.19261 H41.85776133069992 L39.54776133069992,11.7246 H37.30776133069992 zM45.20526133069992,4.03861 H47.72526133069992 L49.11126133069992,8.39261 C49.15786133069992,8.551280000000002 49.19526133069992,8.72861 49.22326133069992,8.92461 C49.26056133069992,9.11128 49.28856133069992,9.30261 49.30726133069992,9.49861 H49.34926133069992 C49.37726133069992,9.28394 49.40986133069992,9.08794 49.447261330699924,8.910610000000002 C49.49386133069992,8.72394 49.54056133069992,8.55594 49.587261330699924,8.40661 L50.97326133069992,4.03861 H53.43726133069992 L50.273261330699924,12.4806 C49.95586133069992,13.3393 49.52186133069992,13.9879 48.97126133069992,14.4266 C48.42056133069992,14.8653 47.71586133069992,15.0846 46.85726133069992,15.0846 C46.61456133069992,15.0846 46.40456133069992,15.0706 46.22726133069992,15.0426 C46.05926133069992,15.0239 45.90986133069992,15.0006 45.77926133069992,14.9726 V13.1106 C45.88186133069992,13.1293 46.00326133069992,13.1479 46.14326133069992,13.1666 C46.29256133069992,13.1853 46.44656133069992,13.1946 46.60526133069992,13.1946 C47.04386133069992,13.1946 47.379861330699924,13.0639 47.61326133069992,12.8026 C47.84656133069992,12.5413 48.02856133069992,12.2333 48.15926133069992,11.8786 L48.24326133069992,11.640600000000001 L45.20526133069992,4.03861 zM66.55036133069991,1.7286100000000004 V7.986609999999999 C66.55036133069991,8.75194 66.39176133069992,9.42394 66.07436133069992,10.0026 C65.76636133069992,10.5813 65.29976133069992,11.0386 64.67436133069992,11.374600000000001 C64.05836133069992,11.7013 63.27436133069992,11.8646 62.32236133069992,11.8646 C60.97836133069992,11.8646 59.951761330699924,11.5193 59.24236133069992,10.8286 C58.53306133069992,10.1379 58.17836133069992,9.19528 58.17836133069992,8.00061 V1.7286100000000004 H60.57236133069992 V7.73461 C60.57236133069992,8.49994 60.72176133069992,9.04594 61.02036133069992,9.37261 C61.32836133069992,9.69928 61.78106133069992,9.86261 62.37836133069992,9.86261 C63.00376133069992,9.86261 63.45636133069992,9.69461 63.73636133069992,9.35861 C64.02576133069992,9.01328 64.17036133069992,8.46728 64.17036133069992,7.720610000000001 V1.7286100000000004 H66.55036133069991 zM73.24046133069992,3.8986099999999997 C74.05246133069993,3.8986099999999997 74.70576133069991,4.12261 75.20046133069992,4.57061 C75.70446133069991,5.00928 75.95646133069992,5.72328 75.95646133069992,6.71261 V11.7246 H73.60446133069992 V7.37061 C73.60446133069992,6.83861 73.51576133069992,6.43728 73.33846133069991,6.16661 C73.16106133069992,5.89594 72.88106133069992,5.76061 72.49846133069993,5.76061 C71.92906133069992,5.76061 71.54176133069993,5.97528 71.33646133069992,6.40461 C71.13106133069992,6.82461 71.02846133069993,7.43128 71.02846133069993,8.224610000000002 V11.7246 H68.66246133069993 V4.03861 H70.45446133069991 L70.77646133069992,5.03261 H70.88846133069993 C71.13106133069992,4.65928 71.45776133069992,4.3792800000000005 71.86846133069992,4.19261 C72.27906133069992,3.9966100000000004 72.73646133069992,3.8986099999999997 73.24046133069992,3.8986099999999997 zM83.47566133069992,9.40061 C83.47566133069992,10.1566 83.20966133069992,10.7586 82.67766133069992,11.2066 C82.15496133069992,11.6453 81.33366133069993,11.8646 80.21366133069992,11.8646 C79.67226133069992,11.8646 79.19626133069993,11.831900000000001 78.78566133069992,11.7666 C78.38426133069991,11.7013 77.97826133069992,11.5846 77.56766133069992,11.4166 V9.51261 C78.01566133069993,9.71794 78.48226133069993,9.87661 78.96766133069993,9.98861 C79.45296133069992,10.0913 79.86366133069993,10.1426 80.19966133069993,10.1426 C80.55426133069992,10.1426 80.81096133069993,10.0959 80.96966133069992,10.0026 C81.12826133069991,9.90928 81.20766133069992,9.77861 81.20766133069992,9.61061 C81.20766133069992,9.48928 81.16566133069992,9.38194 81.08166133069992,9.28861 C81.00696133069992,9.19528 80.84826133069993,9.09261 80.60566133069992,8.98061 C80.37226133069993,8.85928 80.02226133069992,8.70061 79.55566133069992,8.50461 C79.09826133069993,8.30861 78.72026133069993,8.10794 78.42166133069992,7.902609999999999 C78.13226133069992,7.69728 77.91296133069991,7.454610000000001 77.76366133069992,7.17461 C77.62366133069992,6.88528 77.55366133069992,6.52594 77.55366133069992,6.09661 C77.55366133069992,5.36861 77.83366133069993,4.82261 78.39366133069993,4.45861 C78.96296133069993,4.08528 79.71426133069993,3.8986099999999997 80.64766133069992,3.8986099999999997 C81.14226133069992,3.8986099999999997 81.60896133069993,3.94994 82.04766133069992,4.05261 C82.48626133069992,4.15528 82.93896133069993,4.31394 83.40566133069991,4.5286100000000005 L82.73366133069992,6.12461 C82.35096133069992,5.95661 81.97766133069992,5.82128 81.61366133069993,5.71861 C81.25896133069992,5.61594 80.93696133069992,5.56461 80.64766133069992,5.56461 C80.10626133069992,5.56461 79.83566133069992,5.704610000000001 79.83566133069992,5.98461 C79.83566133069992,6.08728 79.87296133069992,6.18528 79.94766133069992,6.2786100000000005 C80.03166133069992,6.36261 80.18566133069992,6.45594 80.40966133069992,6.55861 C80.64296133069992,6.6612800000000005 80.97896133069992,6.8059400000000005 81.41766133069991,6.99261 C81.85626133069992,7.16994 82.22966133069993,7.36128 82.53766133069992,7.56661 C82.84566133069993,7.7626100000000005 83.07896133069993,8.00528 83.23766133069992,8.29461 C83.39626133069991,8.58394 83.47566133069992,8.95261 83.47566133069992,9.40061 zM89.50766133069992,3.8986099999999997 C90.36636133069992,3.8986099999999997 91.05236133069992,4.23928 91.56566133069992,4.92061 C92.07896133069993,5.5926100000000005 92.33566133069992,6.57261 92.33566133069992,7.860610000000001 C92.33566133069992,8.73794 92.20966133069992,9.47528 91.95766133069992,10.0726 C91.70566133069993,10.6606 91.36036133069992,11.1086 90.92166133069992,11.4166 C90.49236133069992,11.7153 89.99766133069993,11.8646 89.43766133069992,11.8646 C88.88696133069992,11.8646 88.45296133069992,11.7666 88.13566133069992,11.5706 C87.82766133069993,11.374600000000001 87.58036133069992,11.1599 87.39366133069993,10.9266 H87.29566133069991 C87.32366133069992,11.1039 87.34696133069993,11.2906 87.36566133069992,11.4866 C87.38436133069992,11.6826 87.39366133069993,11.8926 87.39366133069993,12.1166 V15.0846 H85.02766133069991 V4.03861 H86.94566133069992 L87.28166133069992,5.01861 H87.39366133069993 C87.58966133069993,4.71994 87.85566133069992,4.45861 88.19166133069992,4.23461 C88.52766133069991,4.01061 88.96636133069993,3.8986099999999997 89.50766133069992,3.8986099999999997 zM88.68166133069992,5.76061 C88.20566133069993,5.76061 87.87436133069993,5.91928 87.68766133069992,6.23661 C87.50096133069992,6.5446100000000005 87.40296133069992,7.01128 87.39366133069993,7.63661 V7.84661 C87.39366133069993,8.527940000000001 87.48696133069993,9.05061 87.67366133069991,9.41461 C87.86036133069992,9.77861 88.20566133069993,9.96061 88.70966133069992,9.96061 C89.52166133069991,9.96061 89.92766133069992,9.25128 89.92766133069992,7.83261 C89.92766133069992,7.11394 89.82496133069992,6.59128 89.61966133069993,6.26461 C89.41436133069992,5.92861 89.10166133069993,5.76061 88.68166133069992,5.76061 zM96.32136133069992,11.7246 H93.95536133069992 V1.08461 H96.32136133069992 V11.7246 zM101.78816133069992,3.8846100000000003 C102.78716133069992,3.8846100000000003 103.56116133069992,4.11794 104.11216133069992,4.5846100000000005 C104.66316133069992,5.05128 104.93816133069993,5.73261 104.93816133069993,6.62861 V11.7246 H103.30016133069992 L102.83816133069992,10.688600000000001 H102.78216133069992 C102.45516133069992,11.1086 102.11016133069992,11.4119 101.74616133069992,11.5986 C101.38216133069992,11.7759 100.88316133069992,11.8646 100.24806133069993,11.8646 C99.56676133069992,11.8646 99.00206133069992,11.6639 98.55406133069992,11.2626 C98.10606133069992,10.8613 97.88206133069993,10.2406 97.88206133069993,9.40061 C97.88206133069993,8.58861 98.16676133069993,7.986609999999999 98.73606133069993,7.59461 C99.31476133069992,7.19328 100.15946133069993,6.96928 101.27016133069992,6.92261 L102.58616133069992,6.88061 V6.6566100000000015 C102.58616133069992,6.28328 102.48816133069992,6.01261 102.29216133069993,5.84461 C102.10516133069991,5.67661 101.84416133069992,5.5926100000000005 101.50816133069992,5.5926100000000005 C101.17216133069992,5.5926100000000005 100.82216133069993,5.64861 100.45806133069992,5.76061 C100.09406133069992,5.86328 99.72546133069991,5.99394 99.35206133069993,6.15261 L98.63806133069993,4.5846100000000005 C99.05806133069991,4.36061 99.53406133069993,4.18794 100.06606133069992,4.06661 C100.59806133069992,3.9452800000000003 101.17216133069992,3.8846100000000003 101.78816133069992,3.8846100000000003 zM102.58616133069992,8.224610000000002 L101.87216133069992,8.25261 C101.28416133069992,8.27128 100.87316133069992,8.37861 100.64006133069992,8.57461 C100.40676133069992,8.76128 100.29006133069993,9.01794 100.29006133069993,9.34461 C100.29006133069993,9.63394 100.37406133069992,9.84394 100.54206133069992,9.97461 C100.71016133069992,10.1053 100.92516133069992,10.1706 101.18616133069992,10.1706 C101.57816133069993,10.1706 101.90916133069992,10.0539 102.18016133069992,9.82061 C102.45116133069992,9.57794 102.58616133069992,9.25128 102.58616133069992,8.84061 V8.224610000000002 zM112.46016133069992,9.40061 C112.46016133069992,10.1566 112.19416133069993,10.7586 111.66216133069992,11.2066 C111.13916133069992,11.6453 110.31816133069992,11.8646 109.19816133069992,11.8646 C108.65716133069992,11.8646 108.18116133069992,11.831900000000001 107.77016133069992,11.7666 C107.36916133069992,11.7013 106.96316133069992,11.5846 106.55216133069992,11.4166 V9.51261 C107.00016133069992,9.71794 107.46716133069992,9.87661 107.95216133069992,9.98861 C108.43716133069992,10.0913 108.84816133069992,10.1426 109.18416133069992,10.1426 C109.53916133069993,10.1426 109.79516133069993,10.0959 109.95416133069992,10.0026 C110.11316133069992,9.90928 110.19216133069992,9.77861 110.19216133069992,9.61061 C110.19216133069992,9.48928 110.15016133069992,9.38194 110.06616133069993,9.28861 C109.99116133069992,9.19528 109.83316133069992,9.09261 109.59016133069991,8.98061 C109.35716133069992,8.85928 109.00716133069992,8.70061 108.54016133069992,8.50461 C108.08316133069992,8.30861 107.70516133069992,8.10794 107.40616133069992,7.902609999999999 C107.11716133069991,7.69728 106.89716133069992,7.454610000000001 106.74816133069992,7.17461 C106.60816133069991,6.88528 106.53816133069992,6.52594 106.53816133069992,6.09661 C106.53816133069992,5.36861 106.81816133069992,4.82261 107.37816133069992,4.45861 C107.94716133069993,4.08528 108.69916133069992,3.8986099999999997 109.63216133069992,3.8986099999999997 C110.12716133069992,3.8986099999999997 110.59316133069991,3.94994 111.03216133069992,4.05261 C111.47116133069991,4.15528 111.92316133069993,4.31394 112.39016133069993,4.5286100000000005 L111.71816133069991,6.12461 C111.33516133069992,5.95661 110.96216133069991,5.82128 110.59816133069992,5.71861 C110.24316133069992,5.61594 109.92116133069992,5.56461 109.63216133069992,5.56461 C109.09116133069992,5.56461 108.82016133069992,5.704610000000001 108.82016133069992,5.98461 C108.82016133069992,6.08728 108.85716133069992,6.18528 108.93216133069993,6.2786100000000005 C109.01616133069992,6.36261 109.17016133069993,6.45594 109.39416133069992,6.55861 C109.62716133069992,6.6612800000000005 109.96316133069992,6.8059400000000005 110.40216133069993,6.99261 C110.84116133069992,7.16994 111.21416133069992,7.36128 111.52216133069992,7.56661 C111.83016133069992,7.7626100000000005 112.06316133069993,8.00528 112.22216133069992,8.29461 C112.38116133069992,8.58394 112.46016133069992,8.95261 112.46016133069992,9.40061 zM116.37816133069992,1.08461 V2.94661 C116.37816133069992,3.4132800000000003 116.36416133069991,3.8332800000000002 116.33616133069992,4.20661 C116.30816133069992,4.57061 116.28516133069992,4.83661 116.26616133069992,5.00461 H116.39216133069992 C116.63516133069992,4.60328 116.93816133069993,4.31861 117.30216133069992,4.15061 C117.67516133069992,3.98261 118.09516133069992,3.8986099999999997 118.56216133069992,3.8986099999999997 C119.09416133069992,3.8986099999999997 119.56516133069992,3.9966100000000004 119.97616133069992,4.19261 C120.39616133069993,4.38861 120.72316133069992,4.6919400000000016 120.95616133069993,5.10261 C121.18916133069992,5.51328 121.30616133069992,6.04994 121.30616133069992,6.71261 V11.7246 H118.94016133069992 V7.37061 C118.94016133069992,6.29728 118.57616133069992,5.76061 117.84816133069992,5.76061 C117.28816133069992,5.76061 116.90116133069992,5.97528 116.68616133069992,6.40461 C116.48116133069992,6.82461 116.37816133069992,7.42661 116.37816133069992,8.21061 V11.7246 H114.01216133069993 V1.08461 H116.37816133069992 z" fill="#ffffff" id="svg_3" fill-opacity="1"/>
<rect x="8.173721313476562" y="3.911250114440918" width="7.08873987197876" height="7.08873987197876" rx="2" fill="#ffffff" id="svg_4" fill-opacity="1"/>
<rect y="15" width="22.14579963684082" height="7.08873987197876" rx="2" fill="#ffffff" id="svg_5" x="0.6451613306999207" fill-opacity="1"/>
<path d="M34.259761330699924,23.8942 C33.67776133069992,23.8942 33.20676133069992,23.6842 32.84676133069992,23.2642 C32.49276133069992,22.8442 32.31576133069992,22.2202 32.31576133069992,21.3922 C32.31576133069992,20.5582 32.49576133069992,19.9282 32.85576133069992,19.5022 C33.21576133069992,19.0762 33.68976133069992,18.8632 34.277761330699924,18.8632 C34.643761330699924,18.8632 34.94376133069992,18.9322 35.17776133069992,19.0702 C35.41176133069992,19.2082 35.60076133069992,19.3762 35.74476133069992,19.5742 H35.79876133069992 C35.78676133069992,19.4962 35.771761330699924,19.3762 35.75376133069992,19.2142 C35.73576133069992,19.0522 35.72676133069992,18.9082 35.72676133069992,18.7822 V16.9642 H36.68076133069992 V23.8042 H35.93376133069992 L35.771761330699924,23.1562 H35.72676133069992 C35.588761330699924,23.3662 35.402761330699924,23.5432 35.16876133069992,23.6872 C34.93476133069992,23.8252 34.63176133069992,23.8942 34.259761330699924,23.8942 zM34.48476133069992,23.1112 C34.95276133069992,23.1112 35.28276133069992,22.9822 35.47476133069992,22.7242 C35.66676133069992,22.4602 35.762761330699924,22.0672 35.762761330699924,21.5452 V21.401200000000003 C35.762761330699924,20.837200000000003 35.66976133069992,20.4052 35.48376133069992,20.1052 C35.30376133069992,19.7992 34.96776133069992,19.6462 34.47576133069992,19.6462 C34.085761330699924,19.6462 33.79176133069992,19.805200000000003 33.59376133069992,20.1232 C33.39576133069992,20.435200000000002 33.29676133069992,20.8642 33.29676133069992,21.4102 C33.29676133069992,21.9562 33.39576133069992,22.3762 33.59376133069992,22.6702 C33.79176133069992,22.9642 34.088761330699924,23.1112 34.48476133069992,23.1112 zM40.08386133069992,18.8632 C40.71986133069992,18.8632 41.22086133069992,19.0612 41.58686133069992,19.4572 C41.95286133069992,19.8472 42.13586133069992,20.3812 42.13586133069992,21.0592 V21.5812 H38.87786133069992 C38.88986133069992,22.0792 39.01886133069992,22.4602 39.26486133069992,22.7242 C39.51686133069992,22.9882 39.867861330699924,23.1202 40.31786133069992,23.1202 C40.62986133069992,23.1202 40.90586133069992,23.0932 41.14586133069992,23.0392 C41.39186133069992,22.9792 41.64386133069992,22.8922 41.90186133069992,22.7782 V23.5702 C41.65586133069992,23.6782 41.40986133069992,23.7592 41.16386133069992,23.8132 C40.91786133069992,23.8672 40.623861330699924,23.8942 40.28186133069992,23.8942 C39.80786133069992,23.8942 39.39086133069992,23.8012 39.03086133069992,23.6152 C38.67686133069992,23.4292 38.39786133069992,23.153200000000002 38.19386133069992,22.7872 C37.995861330699924,22.4152 37.89686133069992,21.9592 37.89686133069992,21.4192 C37.89686133069992,20.8732 37.986861330699924,20.4112 38.16686133069992,20.0332 C38.35286133069992,19.6552 38.60786133069992,19.3672 38.931861330699924,19.1692 C39.26186133069992,18.9652 39.64586133069992,18.8632 40.08386133069992,18.8632 zM40.08386133069992,19.6012 C39.74186133069992,19.6012 39.46586133069992,19.712200000000003 39.25586133069992,19.9342 C39.05186133069992,20.1562 38.931861330699924,20.4712 38.89586133069992,20.8792 H41.181861330699924 C41.175861330699924,20.5012 41.08286133069992,20.1952 40.90286133069992,19.9612 C40.72886133069992,19.7212 40.45586133069992,19.6012 40.08386133069992,19.6012 zM44.23946133069992,23.8042 L42.40346133069992,18.9532 H43.41146133069992 L44.41946133069992,21.7882 C44.48546133069992,21.9742 44.55146133069992,22.1842 44.61746133069992,22.4182 C44.68346133069992,22.6462 44.72546133069992,22.8352 44.74346133069992,22.9852 H44.779461330699924 C44.80346133069992,22.8352 44.85146133069992,22.6432 44.92346133069992,22.4092 C44.99546133069992,22.1752 45.06146133069992,21.9682 45.12146133069992,21.7882 L46.12946133069992,18.9532 H47.13746133069992 L45.29246133069992,23.8042 H44.23946133069992 zM49.84076133069992,23.8942 C49.16876133069992,23.8942 48.62876133069992,23.6962 48.22076133069992,23.3002 C47.81276133069992,22.8982 47.60876133069992,22.2682 47.60876133069992,21.4102 C47.60876133069992,20.810200000000002 47.707761330699924,20.3242 47.90576133069992,19.9522 C48.10376133069992,19.5802 48.37676133069992,19.3072 48.72476133069992,19.1332 C49.07276133069992,18.9532 49.46876133069992,18.8632 49.91276133069992,18.8632 C50.18276133069992,18.8632 50.43476133069992,18.8932 50.66876133069992,18.9532 C50.90876133069992,19.0072 51.10676133069992,19.0702 51.262761330699924,19.1422 L50.97476133069992,19.9162 C50.80676133069992,19.8502 50.62676133069992,19.7932 50.43476133069992,19.7452 C50.24876133069992,19.6972 50.07176133069992,19.6732 49.90376133069992,19.6732 C49.02776133069992,19.6732 48.58976133069992,20.2492 48.58976133069992,21.401200000000003 C48.58976133069992,21.9532 48.69776133069992,22.3732 48.91376133069992,22.6612 C49.12976133069992,22.9492 49.44776133069992,23.0932 49.86776133069992,23.0932 C50.137761330699924,23.0932 50.37476133069992,23.0632 50.57876133069992,23.0032 C50.78876133069992,22.9432 50.98076133069992,22.8652 51.15476133069992,22.7692 V23.5972 C50.98076133069992,23.6992 50.79176133069992,23.7742 50.58776133069992,23.8222 C50.38376133069992,23.8702 50.134761330699924,23.8942 49.84076133069992,23.8942 zM53.25386133069992,16.9642 V18.7912 C53.25386133069992,18.9472 53.24786133069992,19.1002 53.23586133069992,19.2502 C53.22386133069992,19.3942 53.21186133069992,19.5142 53.19986133069992,19.6102 H53.26286133069992 C53.41886133069992,19.3582 53.62586133069992,19.1722 53.88386133069992,19.0522 C54.14786133069992,18.9322 54.43286133069992,18.8722 54.73886133069992,18.8722 C55.30886133069992,18.8722 55.74386133069992,19.0132 56.04386133069992,19.2952 C56.34986133069992,19.5772 56.50286133069992,20.0272 56.50286133069992,20.6452 V23.8042 H55.55786133069992 V20.7802 C55.55786133069992,20.0242 55.22486133069992,19.6462 54.55886133069992,19.6462 C54.06086133069992,19.6462 53.71886133069992,19.7962 53.53286133069992,20.0962 C53.34686133069992,20.3902 53.25386133069992,20.8132 53.25386133069992,21.3652 V23.8042 H52.29986133069992 V16.9642 H53.25386133069992 zM59.84986133069992,18.8632 C60.45586133069992,18.8632 60.90886133069992,18.9982 61.20886133069992,19.2682 C61.51486133069992,19.5322 61.66786133069992,19.9492 61.66786133069992,20.5192 V23.8042 H60.992861330699924 L60.803861330699924,23.1292 H60.76786133069992 C60.55786133069992,23.3932 60.33586133069992,23.5882 60.10186133069992,23.7142 C59.873861330699924,23.8342 59.55586133069992,23.8942 59.14786133069992,23.8942 C58.70986133069992,23.8942 58.34686133069992,23.7772 58.05886133069992,23.5432 C57.77086133069992,23.3032 57.626861330699924,22.9312 57.626861330699924,22.4272 C57.626861330699924,21.935200000000002 57.812861330699924,21.560200000000002 58.184861330699924,21.3022 C58.556861330699924,21.0442 59.12986133069992,20.9032 59.90386133069992,20.8792 L60.73186133069992,20.8522 V20.5822 C60.73186133069992,20.2282 60.65086133069992,19.9792 60.48886133069992,19.8352 C60.32686133069992,19.685200000000002 60.09886133069992,19.6102 59.80486133069992,19.6102 C59.55886133069992,19.6102 59.32186133069992,19.6462 59.09386133069992,19.7182 C58.86586133069992,19.7902 58.64686133069992,19.8772 58.43686133069992,19.9792 L58.13086133069992,19.2862 C58.35886133069992,19.1662 58.61986133069992,19.0672 58.91386133069992,18.9892 C59.21386133069992,18.9052 59.52586133069992,18.8632 59.84986133069992,18.8632 zM60.72286133069992,21.4732 L60.07486133069992,21.4912 C59.52286133069992,21.5152 59.13886133069992,21.6082 58.922861330699924,21.7702 C58.71286133069992,21.9262 58.60786133069992,22.1482 58.60786133069992,22.4362 C58.60786133069992,22.688200000000002 58.68286133069992,22.8712 58.83286133069992,22.9852 C58.98286133069992,23.0992 59.17786133069992,23.1562 59.41786133069992,23.1562 C59.78986133069992,23.1562 60.09886133069992,23.0512 60.34486133069992,22.8412 C60.59686133069992,22.6312 60.72286133069992,22.3162 60.72286133069992,21.8962 V21.4732 zM64.09076133069992,23.8042 H63.13676133069992 V16.9642 H64.09076133069992 V23.8042 zM66.54296133069992,23.8042 H65.58896133069992 V16.9642 H66.54296133069992 V23.8042 zM69.94906133069992,18.8632 C70.58506133069992,18.8632 71.08606133069992,19.0612 71.45206133069992,19.4572 C71.81806133069992,19.8472 72.00106133069993,20.3812 72.00106133069993,21.0592 V21.5812 H68.74306133069992 C68.75506133069992,22.0792 68.88406133069992,22.4602 69.13006133069992,22.7242 C69.38206133069993,22.9882 69.73306133069993,23.1202 70.18306133069991,23.1202 C70.49506133069993,23.1202 70.77106133069992,23.0932 71.01106133069992,23.0392 C71.25706133069993,22.9792 71.50906133069992,22.8922 71.76706133069992,22.7782 V23.5702 C71.52106133069992,23.6782 71.27506133069993,23.7592 71.02906133069992,23.8132 C70.78306133069992,23.8672 70.48906133069993,23.8942 70.14706133069993,23.8942 C69.67306133069992,23.8942 69.25606133069992,23.8012 68.89606133069992,23.6152 C68.54206133069992,23.4292 68.26306133069993,23.153200000000002 68.05906133069992,22.7872 C67.86106133069993,22.4152 67.76206133069992,21.9592 67.76206133069992,21.4192 C67.76206133069992,20.8732 67.85206133069993,20.4112 68.03206133069992,20.0332 C68.21806133069992,19.6552 68.47306133069992,19.3672 68.79706133069992,19.1692 C69.12706133069992,18.9652 69.51106133069992,18.8632 69.94906133069992,18.8632 zM69.94906133069992,19.6012 C69.60706133069992,19.6012 69.33106133069992,19.712200000000003 69.12106133069992,19.9342 C68.91706133069992,20.1562 68.79706133069992,20.4712 68.76106133069992,20.8792 H71.04706133069992 C71.04106133069992,20.5012 70.94806133069991,20.1952 70.76806133069992,19.9612 C70.59406133069992,19.7212 70.32106133069992,19.6012 69.94906133069992,19.6012 zM75.64846133069992,18.8632 C76.21246133069992,18.8632 76.64446133069993,19.0042 76.94446133069992,19.2862 C77.24446133069992,19.5682 77.39446133069993,20.0212 77.39446133069993,20.6452 V23.8042 H76.44946133069992 V20.7802 C76.44946133069992,20.0242 76.11646133069992,19.6462 75.45046133069992,19.6462 C74.95246133069992,19.6462 74.61046133069992,19.7932 74.42446133069993,20.0872 C74.23846133069992,20.3812 74.14546133069992,20.8042 74.14546133069992,21.3562 V23.8042 H73.19146133069992 V18.9532 H73.94746133069992 L74.08246133069991,19.6012 H74.13646133069992 C74.29246133069992,19.3492 74.50546133069992,19.1632 74.77546133069993,19.0432 C75.05146133069992,18.9232 75.34246133069992,18.8632 75.64846133069992,18.8632 zM80.53446133069993,18.8632 C81.17646133069992,18.8632 81.67146133069993,19.1062 82.01946133069993,19.5922 H82.06446133069993 L82.17246133069992,18.9532 H82.94646133069992 V23.8672 C82.94646133069992,24.5572 82.76046133069993,25.0792 82.38846133069993,25.4332 C82.02246133069993,25.7872 81.46146133069992,25.9642 80.70546133069992,25.9642 C80.35146133069992,25.9642 80.02746133069992,25.9402 79.73346133069992,25.8922 C79.44546133069991,25.8442 79.17846133069992,25.7692 78.93246133069992,25.6672 V24.8302 C79.44846133069991,25.0822 80.05746133069992,25.2082 80.75946133069992,25.2082 C81.15546133069992,25.2082 81.46146133069992,25.0942 81.67746133069993,24.8662 C81.89346133069992,24.6442 82.00146133069993,24.3292 82.00146133069993,23.9212 V23.7592 C82.00146133069993,23.6812 82.00446133069993,23.5792 82.01046133069993,23.4532 C82.01646133069993,23.3272 82.02246133069993,23.2312 82.02846133069993,23.1652 H81.99246133069992 C81.83046133069992,23.4172 81.62646133069993,23.6032 81.38046133069992,23.7232 C81.13446133069992,23.837200000000003 80.85246133069992,23.8942 80.53446133069993,23.8942 C79.92246133069992,23.8942 79.44246133069993,23.6752 79.09446133069991,23.2372 C78.75246133069992,22.7932 78.58146133069992,22.1782 78.58146133069992,21.3922 C78.58146133069992,20.6122 78.75246133069992,19.9972 79.09446133069991,19.5472 C79.44246133069993,19.0912 79.92246133069992,18.8632 80.53446133069993,18.8632 zM80.73246133069992,19.6552 C80.35446133069992,19.6552 80.06346133069992,19.805200000000003 79.85946133069992,20.1052 C79.66146133069992,20.4052 79.56246133069992,20.837200000000003 79.56246133069992,21.401200000000003 C79.56246133069992,21.9652 79.66146133069992,22.3942 79.85946133069992,22.688200000000002 C80.06346133069992,22.9822 80.36046133069992,23.1292 80.75046133069992,23.1292 C81.19446133069992,23.1292 81.51846133069992,23.0092 81.72246133069991,22.7692 C81.93246133069992,22.5232 82.03746133069993,22.1242 82.03746133069993,21.5722 V21.3922 C82.03746133069993,20.7742 81.93246133069992,20.3302 81.72246133069991,20.0602 C81.51246133069992,19.7902 81.18246133069992,19.6552 80.73246133069992,19.6552 zM86.34946133069992,18.8632 C86.98546133069992,18.8632 87.48646133069992,19.0612 87.85246133069992,19.4572 C88.21846133069992,19.8472 88.40146133069992,20.3812 88.40146133069992,21.0592 V21.5812 H85.14346133069992 C85.15546133069992,22.0792 85.28446133069993,22.4602 85.53046133069992,22.7242 C85.78246133069992,22.9882 86.13346133069992,23.1202 86.58346133069992,23.1202 C86.89546133069992,23.1202 87.17146133069993,23.0932 87.41146133069992,23.0392 C87.65746133069992,22.9792 87.90946133069993,22.8922 88.16746133069992,22.7782 V23.5702 C87.92146133069993,23.6782 87.67546133069992,23.7592 87.42946133069992,23.8132 C87.18346133069993,23.8672 86.88946133069992,23.8942 86.54746133069992,23.8942 C86.07346133069991,23.8942 85.65646133069993,23.8012 85.29646133069993,23.6152 C84.94246133069993,23.4292 84.66346133069992,23.153200000000002 84.45946133069992,22.7872 C84.26146133069992,22.4152 84.16246133069993,21.9592 84.16246133069993,21.4192 C84.16246133069993,20.8732 84.25246133069992,20.4112 84.43246133069992,20.0332 C84.61846133069992,19.6552 84.87346133069993,19.3672 85.19746133069992,19.1692 C85.52746133069992,18.9652 85.91146133069992,18.8632 86.34946133069992,18.8632 zM86.34946133069992,19.6012 C86.00746133069993,19.6012 85.73146133069991,19.712200000000003 85.52146133069992,19.9342 C85.31746133069993,20.1562 85.19746133069992,20.4712 85.16146133069992,20.8792 H87.44746133069992 C87.44146133069992,20.5012 87.34846133069992,20.1952 87.16846133069993,19.9612 C86.99446133069992,19.7212 86.72146133069992,19.6012 86.34946133069992,19.6012 zM92.81386133069992,22.4362 C92.81386133069992,22.9102 92.63986133069992,23.2732 92.29186133069992,23.5252 C91.94386133069992,23.7712 91.46086133069993,23.8942 90.84286133069992,23.8942 C90.50086133069992,23.8942 90.20686133069992,23.8672 89.96086133069993,23.8132 C89.72086133069992,23.7652 89.49886133069992,23.6932 89.29486133069992,23.5972 V22.7602 C89.50486133069992,22.8622 89.75086133069992,22.9552 90.03286133069992,23.0392 C90.32086133069993,23.1172 90.59986133069992,23.1562 90.86986133069992,23.1562 C91.22986133069992,23.1562 91.48786133069991,23.0992 91.64386133069992,22.9852 C91.80586133069993,22.8712 91.88686133069992,22.7182 91.88686133069992,22.526200000000003 C91.88686133069992,22.4182 91.85686133069991,22.3222 91.79686133069993,22.2382 C91.73686133069992,22.1482 91.62286133069992,22.0582 91.45486133069993,21.9682 C91.29286133069992,21.8722 91.05286133069993,21.7642 90.73486133069991,21.6442 C90.42286133069992,21.5182 90.15886133069992,21.3952 89.94286133069993,21.2752 C89.73286133069992,21.1492 89.57086133069993,21.0022 89.45686133069992,20.8342 C89.34286133069992,20.6602 89.28586133069992,20.4382 89.28586133069992,20.1682 C89.28586133069992,19.7482 89.45386133069992,19.4272 89.78986133069992,19.2052 C90.13186133069992,18.9772 90.58186133069992,18.8632 91.13986133069992,18.8632 C91.43386133069993,18.8632 91.70986133069992,18.8932 91.96786133069992,18.9532 C92.23186133069991,19.0132 92.48686133069992,19.0972 92.73286133069992,19.2052 L92.41786133069992,19.9342 C92.20786133069993,19.8442 91.99186133069992,19.7692 91.76986133069992,19.7092 C91.54786133069992,19.6432 91.32286133069992,19.6102 91.09486133069993,19.6102 C90.80686133069992,19.6102 90.58786133069992,19.6552 90.43786133069992,19.7452 C90.28786133069993,19.8352 90.21286133069992,19.9612 90.21286133069992,20.1232 C90.21286133069992,20.2372 90.24886133069992,20.3362 90.32086133069993,20.4202 C90.39286133069992,20.5042 90.51286133069992,20.5882 90.68086133069993,20.6722 C90.85486133069992,20.7562 91.09186133069993,20.8582 91.39186133069992,20.9782 C91.69186133069992,21.0922 91.94686133069992,21.2092 92.15686133069993,21.3292 C92.37286133069992,21.4492 92.53486133069993,21.5962 92.64286133069992,21.7702 C92.75686133069992,21.9442 92.81386133069992,22.1662 92.81386133069992,22.4362 zM93.81626133069992,23.2732 C93.81626133069992,23.0392 93.87326133069992,22.874200000000002 93.98726133069992,22.7782 C94.10726133069993,22.6822 94.25426133069992,22.6342 94.42826133069993,22.6342 C94.59626133069992,22.6342 94.74026133069992,22.6822 94.86026133069993,22.7782 C94.98626133069992,22.874200000000002 95.04926133069992,23.0392 95.04926133069992,23.2732 C95.04926133069992,23.5072 94.98626133069992,23.6752 94.86026133069993,23.7772 C94.74026133069992,23.8792 94.59626133069992,23.930200000000003 94.42826133069993,23.930200000000003 C94.25426133069992,23.930200000000003 94.10726133069993,23.8792 93.98726133069992,23.7772 C93.87326133069992,23.6752 93.81626133069992,23.5072 93.81626133069992,23.2732 zM96.89816133069992,17.1082 C97.04216133069993,17.1082 97.16816133069992,17.1502 97.27616133069992,17.2342 C97.38416133069992,17.3182 97.43816133069993,17.4592 97.43816133069993,17.6572 C97.43816133069993,17.8492 97.38416133069992,17.9902 97.27616133069992,18.0802 C97.16816133069992,18.1642 97.04216133069993,18.2062 96.89816133069992,18.2062 C96.74216133069991,18.2062 96.61016133069992,18.1642 96.50216133069992,18.0802 C96.40016133069992,17.9902 96.34916133069991,17.8492 96.34916133069991,17.6572 C96.34916133069991,17.4592 96.40016133069992,17.3182 96.50216133069992,17.2342 C96.61016133069992,17.1502 96.74216133069991,17.1082 96.89816133069992,17.1082 zM97.36616133069992,18.9532 V23.8042 H96.41216133069992 V18.9532 H97.36616133069992 zM103.13916133069992,21.3742 C103.13916133069992,22.1782 102.93216133069993,22.7992 102.51816133069993,23.2372 C102.10416133069992,23.6752 101.54616133069992,23.8942 100.84416133069992,23.8942 C100.40636133069992,23.8942 100.01636133069992,23.7952 99.67436133069992,23.5972 C99.33836133069993,23.3992 99.07136133069992,23.1142 98.87336133069992,22.7422 C98.68136133069991,22.3642 98.58536133069993,21.9082 98.58536133069993,21.3742 C98.58536133069993,20.5702 98.78936133069992,19.9522 99.19736133069992,19.5202 C99.60536133069992,19.0822 100.16336133069991,18.8632 100.87116133069992,18.8632 C101.31516133069992,18.8632 101.70516133069992,18.962200000000003 102.04116133069992,19.1602 C102.38316133069992,19.3522 102.65016133069992,19.6342 102.84216133069992,20.0062 C103.04016133069992,20.3782 103.13916133069992,20.8342 103.13916133069992,21.3742 zM99.56636133069992,21.3742 C99.56636133069992,21.9202 99.66836133069992,22.3462 99.87236133069992,22.6522 C100.08236133069992,22.9582 100.41236133069992,23.1112 100.86216133069992,23.1112 C101.31216133069992,23.1112 101.63916133069992,22.9582 101.84316133069991,22.6522 C102.05316133069992,22.3462 102.15816133069993,21.9202 102.15816133069993,21.3742 C102.15816133069993,20.8222 102.05316133069992,20.3992 101.84316133069991,20.1052 C101.63316133069992,19.805200000000003 101.30316133069992,19.6552 100.85316133069992,19.6552 C100.40336133069992,19.6552 100.07636133069992,19.805200000000003 99.87236133069992,20.1052 C99.66836133069992,20.3992 99.56636133069992,20.8222 99.56636133069992,21.3742 z" fill="#ffffff" id="svg_6" fill-opacity="1"/>
</g></g></svg>